<svg width="25" height="24" viewBox="0 0 25 24" fill="none" xmlns="http://www.w3.org/2000/svg">
<path d="M12.5 6.5625C13.4876 6.5625 14.3984 6.8157 15.186 7.31283C15.645 7.60249 16.2599 7.60632 16.6437 7.22257L17.7894 6.07686C18.1899 5.67632 18.1811 5.01805 17.725 4.68219C16.2907 3.6261 14.5321 3 12.5 3C8.98249 3 5.94124 5.0175 4.45999 7.9575L7.45249 10.2787C8.16124 8.145 10.1525 6.5625 12.5 6.5625Z" stroke="white" stroke-width="1.25" stroke-linecap="round"/>
<path d="M21.1175 12.2063C21.1175 11.9155 21.1038 11.6293 21.0795 11.3482C21.0372 10.8578 20.6124 10.5 20.1202 10.5H13.5C12.9477 10.5 12.5 10.9477 12.5 11.5V12.8825C12.5 13.4348 12.9477 13.8825 13.5 13.8825H17.3525C17.135 14.9925 16.505 15.9375 15.56 16.575L18.4587 18.825C20.15 17.2575 21.1175 14.94 21.1175 12.2063Z" stroke="white" stroke-width="1.25" stroke-linecap="round"/>
<path d="M7.44875 13.7212C7.26875 13.1775 7.16375 12.6 7.16375 12C7.16375 11.4 7.265 10.8225 7.44875 10.2787L4.45625 7.95752C3.845 9.17252 3.5 10.545 3.5 12C3.5 13.455 3.845 14.8275 4.46 16.0425L7.44875 13.7212Z" stroke="white" stroke-width="1.25" stroke-linecap="round"/>
<path d="M12.0437 22.2825C14.4737 22.2825 16.5174 21.4837 18.0024 20.1037L15.1038 17.8537C14.2975 18.3975 13.2587 18.7162 12.0437 18.7162C9.69625 18.7162 7.705 17.1337 6.9925 15L4 17.3212C5.485 20.265 8.52625 22.2825 12.0437 22.2825Z" stroke="white" stroke-width="1.25" stroke-linecap="round"/>
</svg>
