<svg width="347" height="418" viewBox="0 0 347 418" fill="none" xmlns="http://www.w3.org/2000/svg">
<path d="M141.37 221.07V259.88C141.37 268.68 148.51 275.81 157.31 275.81H267.85C272.25 275.81 275.82 279.38 275.82 283.78V338.53C275.82 342.93 272.25 346.5 267.85 346.5H142.41C138.01 346.5 134.44 342.93 134.44 338.53V298.68C134.44 289.88 127.31 282.74 118.5 282.74H78.6599C74.2599 282.74 70.6899 279.17 70.6899 274.77V220.02C70.6899 215.62 74.2599 212.05 78.6599 212.05H118.5C127.31 212.05 134.44 204.91 134.44 196.11V157.3C134.44 148.5 127.31 141.36 118.5 141.36H78.6599C74.2599 141.36 70.6899 137.79 70.6899 133.39V78.64C70.6899 74.24 74.2599 70.67 78.6599 70.67H133.41C137.81 70.67 141.38 74.24 141.38 78.64V118.49C141.38 127.29 148.52 134.42 157.32 134.42H267.86C272.26 134.42 275.83 137.99 275.83 142.39V197.14C275.83 201.54 272.26 205.11 267.86 205.11H157.32C148.52 205.11 141.38 212.25 141.38 221.05L141.37 221.07Z" fill="black"/>
</svg>
