<svg width="895" height="418" viewBox="0 0 895 418" fill="none" xmlns="http://www.w3.org/2000/svg">
<path d="M141.67 221.07V259.88C141.67 268.68 148.81 275.81 157.61 275.81H268.15C272.55 275.81 276.12 279.38 276.12 283.78V338.53C276.12 342.93 272.55 346.5 268.15 346.5H142.71C138.31 346.5 134.74 342.93 134.74 338.53V298.68C134.74 289.88 127.61 282.74 118.8 282.74H78.9597C74.5597 282.74 70.9897 279.17 70.9897 274.77V220.02C70.9897 215.62 74.5597 212.05 78.9597 212.05H118.8C127.61 212.05 134.74 204.91 134.74 196.11V157.3C134.74 148.5 127.61 141.36 118.8 141.36H78.9597C74.5597 141.36 70.9897 137.79 70.9897 133.39V78.64C70.9897 74.24 74.5597 70.67 78.9597 70.67H133.71C138.11 70.67 141.68 74.24 141.68 78.64V118.49C141.68 127.29 148.82 134.42 157.62 134.42H268.16C272.56 134.42 276.13 137.99 276.13 142.39V197.14C276.13 201.54 272.56 205.11 268.16 205.11H157.62C148.82 205.11 141.68 212.25 141.68 221.05L141.67 221.07Z" fill="white"/>
<path d="M403.82 262.88H397.42C393.4 262.88 390.02 261.19 387.26 257.8C384.5 254.41 383.12 250.21 383.12 245.19V198.72H399.11C401.74 198.72 403.87 197.97 405.51 196.46C407.14 194.95 407.96 193.07 407.96 190.81C407.96 188.3 407.14 186.29 405.51 184.79C403.88 183.28 401.75 182.53 399.11 182.53H383.12V155.44C383.12 152.68 382.24 150.42 380.49 148.66C378.73 146.91 376.47 146.03 373.72 146.03C370.97 146.03 368.7 146.91 366.94 148.66C365.18 150.42 364.31 152.68 364.31 155.44V182.53H355.66C353.03 182.53 350.89 183.28 349.26 184.79C347.63 186.3 346.81 188.3 346.81 190.81C346.81 193.07 347.63 194.95 349.26 196.46C350.89 197.97 353.03 198.72 355.66 198.72H364.31V245.19C364.31 252.09 365.75 258.3 368.64 263.82C371.53 269.34 375.48 273.7 380.49 276.9C385.51 280.1 391.15 281.7 397.42 281.7H400.81C404.07 281.7 406.74 280.82 408.81 279.07C410.88 277.31 411.92 275.06 411.92 272.3C411.92 269.54 411.13 267.28 409.57 265.52C408 263.77 406.09 262.89 403.83 262.89L403.82 262.88Z" fill="white"/>
<path d="M508.429 184.89C500.649 180.31 491.869 178.02 482.089 178.02C472.309 178.02 463.489 180.31 455.649 184.89C447.809 189.47 441.599 195.71 437.019 203.61C432.439 211.51 430.149 220.42 430.149 230.33C430.149 240.24 432.249 249.12 436.449 256.95C440.649 264.79 446.389 271 453.669 275.58C460.939 280.16 469.159 282.45 478.319 282.45C487.479 282.45 495.689 280.16 502.969 275.58C507.439 272.77 511.329 269.33 514.639 265.29V272.29C514.639 275.05 515.549 277.34 517.369 279.16C519.189 280.98 521.479 281.89 524.239 281.89C526.999 281.89 529.289 280.98 531.109 279.16C532.929 277.35 533.839 275.05 533.839 272.29V230.33C533.839 220.42 531.549 211.51 526.969 203.61C522.389 195.71 516.209 189.47 508.439 184.89H508.429ZM499.209 260.91C494.189 263.99 488.489 265.52 482.089 265.52C475.689 265.52 470.139 263.99 465.059 260.91C459.979 257.84 455.959 253.64 453.019 248.31C450.069 242.98 448.599 236.99 448.599 230.34C448.599 223.69 450.069 217.52 453.019 212.18C455.969 206.85 459.979 202.65 465.059 199.57C470.139 196.5 475.809 194.96 482.089 194.96C488.369 194.96 494.189 196.5 499.209 199.57C504.229 202.65 508.179 206.85 511.059 212.18C513.939 217.51 515.389 223.56 515.389 230.34C515.389 237.12 513.949 242.98 511.059 248.31C508.169 253.64 504.219 257.84 499.209 260.91Z" fill="white"/>
<path d="M591.59 262.88H586.89C584.13 262.88 581.87 261.37 580.12 258.36C578.36 255.35 577.49 251.52 577.49 246.88V144.15C577.49 141.39 576.61 139.13 574.86 137.38C573.1 135.62 570.84 134.74 568.08 134.74C565.32 134.74 563.06 135.62 561.31 137.38C559.55 139.14 558.68 141.39 558.68 144.15V246.88C558.68 253.66 559.87 259.65 562.25 264.85C564.63 270.06 567.96 274.16 572.22 277.17C576.48 280.18 581.38 281.69 586.9 281.69H587.28C591.04 281.69 594.12 280.81 596.5 279.06C598.88 277.3 600.07 275.05 600.07 272.29C600.07 269.53 599.29 267.27 597.72 265.51C596.15 263.76 594.11 262.88 591.6 262.88H591.59Z" fill="white"/>
<path d="M691.869 184.89C684.089 180.31 675.309 178.02 665.529 178.02C655.749 178.02 646.929 180.31 639.089 184.89C631.249 189.47 625.039 195.71 620.459 203.61C615.879 211.51 613.589 220.42 613.589 230.33C613.589 240.24 615.689 249.12 619.889 256.95C624.089 264.79 629.829 271 637.109 275.58C644.379 280.16 652.599 282.45 661.759 282.45C670.919 282.45 679.129 280.16 686.409 275.58C690.879 272.77 694.769 269.33 698.079 265.29V272.29C698.079 275.05 698.989 277.34 700.809 279.16C702.619 280.98 704.919 281.89 707.679 281.89C710.439 281.89 712.729 280.98 714.549 279.16C716.369 277.35 717.279 275.05 717.279 272.29V230.33C717.279 220.42 714.989 211.51 710.409 203.61C705.829 195.71 699.649 189.47 691.879 184.89H691.869ZM682.649 260.91C677.629 263.99 671.929 265.52 665.529 265.52C659.129 265.52 653.579 263.99 648.499 260.91C643.419 257.84 639.399 253.64 636.459 248.31C633.509 242.98 632.039 236.99 632.039 230.34C632.039 223.69 633.509 217.52 636.459 212.18C639.409 206.85 643.419 202.65 648.499 199.57C653.579 196.5 659.249 194.96 665.529 194.96C671.809 194.96 677.629 196.5 682.649 199.57C687.669 202.65 691.619 206.85 694.509 212.18C697.389 217.51 698.839 223.56 698.839 230.34C698.839 237.12 697.399 242.98 694.509 248.31C691.619 253.64 687.669 257.84 682.649 260.91Z" fill="white"/>
<path d="M820.19 238.33C817.81 234.51 813.89 231.15 808.43 228.26C802.97 225.38 795.54 222.99 786.13 221.11C779.36 219.73 774.21 218.32 770.7 216.88C767.19 215.44 764.84 213.81 763.64 211.99C762.45 210.17 761.85 208.13 761.85 205.87C761.85 202.23 763.76 199.47 767.59 197.59C771.42 195.71 776.09 194.77 781.61 194.77C786.37 194.77 790.58 195.33 794.21 196.46C797.85 197.59 801.23 199.66 804.37 202.67C806.25 204.43 808.57 205.56 811.33 206.06C814.09 206.56 816.47 206.13 818.48 204.74C820.48 203.23 821.55 201.39 821.68 199.19C821.8 197 820.99 194.89 819.23 192.89C815.46 188.25 810.39 184.61 803.99 181.98C797.59 179.35 790.25 178.03 781.98 178.03C775.58 178.03 769.43 179.06 763.54 181.13C757.64 183.2 752.81 186.34 749.05 190.54C745.29 194.74 743.41 200.04 743.41 206.44C743.41 213.72 746.26 219.86 751.97 224.88C757.68 229.9 766.86 233.66 779.54 236.17C789.32 237.93 796.06 240.18 799.76 242.94C803.46 245.7 805.25 248.96 805.12 252.73C804.99 256.49 803.02 259.57 799.19 261.95C795.36 264.33 789.81 265.52 782.54 265.52C776.77 265.52 771.53 264.49 766.83 262.42C762.13 260.35 758.71 258.12 756.58 255.74C754.82 253.86 752.72 252.76 750.28 252.45C747.83 252.14 745.35 252.99 742.85 254.99C740.71 256.62 739.49 258.72 739.18 261.29C738.86 263.86 739.65 266.15 741.53 268.16C745.67 272.3 751.47 275.72 758.93 278.41C766.39 281.11 774.51 282.46 783.3 282.46C792.09 282.46 799.64 281.08 805.59 278.32C811.55 275.56 816.06 271.86 819.14 267.22C822.21 262.58 823.75 257.37 823.75 251.6C823.75 246.59 822.55 242.16 820.18 238.34L820.19 238.33Z" fill="white"/>
</svg>
