<svg width="619" height="634" viewBox="0 0 619 634" fill="none" xmlns="http://www.w3.org/2000/svg">
<path d="M244.46 221.07V259.88C244.46 268.68 251.6 275.81 260.4 275.81H370.94C375.34 275.81 378.91 279.38 378.91 283.78V338.53C378.91 342.93 375.34 346.5 370.94 346.5H245.5C241.1 346.5 237.53 342.93 237.53 338.53V298.68C237.53 289.88 230.4 282.74 221.59 282.74H181.75C177.35 282.74 173.78 279.17 173.78 274.77V220.02C173.78 215.62 177.35 212.05 181.75 212.05H221.59C230.4 212.05 237.53 204.91 237.53 196.11V157.3C237.53 148.5 230.4 141.36 221.59 141.36H181.75C177.35 141.36 173.78 137.79 173.78 133.39V78.64C173.78 74.24 177.35 70.67 181.75 70.67H236.5C240.9 70.67 244.47 74.24 244.47 78.64V118.49C244.47 127.29 251.61 134.42 260.41 134.42H370.95C375.35 134.42 378.92 137.99 378.92 142.39V197.14C378.92 201.54 375.35 205.11 370.95 205.11H260.41C251.61 205.11 244.47 212.25 244.47 221.05L244.46 221.07Z" fill="black"/>
<path d="M127.7 544.27H121.3C117.28 544.27 113.9 542.58 111.14 539.19C108.38 535.8 107 531.6 107 526.58V480.11H122.99C125.62 480.11 127.75 479.36 129.39 477.85C131.02 476.34 131.84 474.46 131.84 472.2C131.84 469.69 131.02 467.68 129.39 466.18C127.76 464.67 125.63 463.92 122.99 463.92H107V436.83C107 434.07 106.12 431.81 104.37 430.05C102.61 428.3 100.35 427.42 97.5999 427.42C94.8499 427.42 92.5799 428.3 90.8199 430.05C89.0599 431.81 88.1899 434.07 88.1899 436.83V463.92H79.5399C76.9099 463.92 74.7699 464.67 73.1399 466.18C71.5099 467.69 70.6899 469.69 70.6899 472.2C70.6899 474.46 71.5099 476.34 73.1399 477.85C74.7699 479.36 76.9099 480.11 79.5399 480.11H88.1899V526.58C88.1899 533.48 89.6299 539.69 92.5199 545.21C95.4099 550.73 99.3599 555.09 104.37 558.29C109.39 561.49 115.03 563.09 121.3 563.09H124.69C127.95 563.09 130.62 562.21 132.69 560.46C134.76 558.7 135.8 556.45 135.8 553.69C135.8 550.93 135.01 548.67 133.45 546.91C131.88 545.16 129.97 544.28 127.71 544.28L127.7 544.27Z" fill="black"/>
<path d="M232.31 466.28C224.53 461.7 215.75 459.41 205.97 459.41C196.19 459.41 187.37 461.7 179.53 466.28C171.69 470.86 165.48 477.1 160.9 485C156.32 492.9 154.03 501.81 154.03 511.72C154.03 521.63 156.13 530.51 160.33 538.34C164.53 546.18 170.27 552.39 177.55 556.97C184.82 561.55 193.04 563.84 202.2 563.84C211.36 563.84 219.57 561.55 226.85 556.97C231.32 554.16 235.21 550.72 238.52 546.68V553.68C238.52 556.44 239.43 558.73 241.25 560.55C243.07 562.37 245.36 563.28 248.12 563.28C250.88 563.28 253.17 562.37 254.99 560.55C256.81 558.74 257.72 556.44 257.72 553.68V511.72C257.72 501.81 255.43 492.9 250.85 485C246.27 477.1 240.09 470.86 232.32 466.28H232.31ZM223.09 542.3C218.07 545.38 212.37 546.91 205.97 546.91C199.57 546.91 194.02 545.38 188.94 542.3C183.86 539.23 179.84 535.03 176.9 529.7C173.95 524.37 172.48 518.38 172.48 511.73C172.48 505.08 173.95 498.91 176.9 493.57C179.85 488.24 183.86 484.04 188.94 480.96C194.02 477.89 199.69 476.35 205.97 476.35C212.25 476.35 218.07 477.89 223.09 480.96C228.11 484.04 232.06 488.24 234.94 493.57C237.82 498.9 239.27 504.95 239.27 511.73C239.27 518.51 237.83 524.37 234.94 529.7C232.05 535.03 228.1 539.23 223.09 542.3Z" fill="black"/>
<path d="M315.47 544.27H310.77C308.01 544.27 305.75 542.76 304 539.75C302.24 536.74 301.37 532.91 301.37 528.27V425.54C301.37 422.78 300.49 420.52 298.74 418.77C296.98 417.01 294.72 416.13 291.96 416.13C289.2 416.13 286.94 417.01 285.19 418.77C283.43 420.53 282.56 422.78 282.56 425.54V528.27C282.56 535.05 283.75 541.04 286.13 546.24C288.51 551.45 291.84 555.55 296.1 558.56C300.36 561.57 305.26 563.08 310.78 563.08H311.16C314.92 563.08 318 562.2 320.38 560.45C322.76 558.69 323.95 556.44 323.95 553.68C323.95 550.92 323.17 548.66 321.6 546.9C320.03 545.15 317.99 544.27 315.48 544.27H315.47Z" fill="black"/>
<path d="M415.75 466.28C407.97 461.7 399.19 459.41 389.41 459.41C379.63 459.41 370.81 461.7 362.97 466.28C355.13 470.86 348.92 477.1 344.34 485C339.76 492.9 337.47 501.81 337.47 511.72C337.47 521.63 339.57 530.51 343.77 538.34C347.97 546.18 353.71 552.39 360.99 556.97C368.26 561.55 376.48 563.84 385.64 563.84C394.8 563.84 403.01 561.55 410.29 556.97C414.76 554.16 418.65 550.72 421.96 546.68V553.68C421.96 556.44 422.87 558.73 424.69 560.55C426.5 562.37 428.8 563.28 431.56 563.28C434.32 563.28 436.61 562.37 438.43 560.55C440.25 558.74 441.16 556.44 441.16 553.68V511.72C441.16 501.81 438.87 492.9 434.29 485C429.71 477.1 423.53 470.86 415.76 466.28H415.75ZM406.53 542.3C401.51 545.38 395.81 546.91 389.41 546.91C383.01 546.91 377.46 545.38 372.38 542.3C367.3 539.23 363.28 535.03 360.34 529.7C357.39 524.37 355.92 518.38 355.92 511.73C355.92 505.08 357.39 498.91 360.34 493.57C363.29 488.24 367.3 484.04 372.38 480.96C377.46 477.89 383.13 476.35 389.41 476.35C395.69 476.35 401.51 477.89 406.53 480.96C411.55 484.04 415.5 488.24 418.39 493.57C421.27 498.9 422.72 504.95 422.72 511.73C422.72 518.51 421.28 524.37 418.39 529.7C415.5 535.03 411.55 539.23 406.53 542.3Z" fill="black"/>
<path d="M544.07 519.72C541.69 515.9 537.77 512.54 532.31 509.65C526.85 506.77 519.42 504.38 510.01 502.5C503.24 501.12 498.09 499.71 494.58 498.27C491.07 496.83 488.72 495.2 487.52 493.38C486.33 491.56 485.73 489.52 485.73 487.26C485.73 483.62 487.64 480.86 491.47 478.98C495.3 477.1 499.97 476.16 505.49 476.16C510.25 476.16 514.46 476.72 518.09 477.85C521.73 478.98 525.11 481.05 528.25 484.06C530.13 485.82 532.45 486.95 535.21 487.45C537.97 487.95 540.35 487.52 542.36 486.13C544.36 484.62 545.43 482.78 545.56 480.58C545.68 478.39 544.87 476.28 543.11 474.28C539.34 469.64 534.27 466 527.87 463.37C521.47 460.74 514.13 459.42 505.86 459.42C499.46 459.42 493.31 460.45 487.42 462.52C481.52 464.59 476.69 467.73 472.93 471.93C469.17 476.13 467.29 481.43 467.29 487.83C467.29 495.11 470.14 501.25 475.85 506.27C481.56 511.29 490.74 515.05 503.42 517.56C513.2 519.32 519.94 521.57 523.64 524.33C527.34 527.09 529.13 530.35 529 534.12C528.87 537.88 526.9 540.96 523.07 543.34C519.24 545.72 513.69 546.91 506.42 546.91C500.65 546.91 495.41 545.88 490.71 543.81C486.01 541.74 482.59 539.51 480.46 537.13C478.7 535.25 476.6 534.15 474.16 533.84C471.71 533.53 469.23 534.38 466.73 536.38C464.59 538.01 463.37 540.11 463.06 542.68C462.74 545.25 463.53 547.54 465.41 549.55C469.55 553.69 475.35 557.11 482.81 559.8C490.27 562.5 498.39 563.85 507.18 563.85C515.97 563.85 523.52 562.47 529.47 559.71C535.43 556.95 539.94 553.25 543.02 548.61C546.09 543.97 547.63 538.76 547.63 532.99C547.63 527.98 546.43 523.55 544.06 519.73L544.07 519.72Z" fill="black"/>
</svg>
