<svg width="895" height="418" viewBox="0 0 895 418" fill="none" xmlns="http://www.w3.org/2000/svg">
<path d="M141.52 221.07V259.88C141.52 268.68 148.66 275.81 157.46 275.81H268C272.4 275.81 275.97 279.38 275.97 283.78V338.53C275.97 342.93 272.4 346.5 268 346.5H142.56C138.16 346.5 134.59 342.93 134.59 338.53V298.68C134.59 289.88 127.46 282.74 118.65 282.74H78.8098C74.4098 282.74 70.8398 279.17 70.8398 274.77V220.02C70.8398 215.62 74.4098 212.05 78.8098 212.05H118.65C127.46 212.05 134.59 204.91 134.59 196.11V157.3C134.59 148.5 127.46 141.36 118.65 141.36H78.8098C74.4098 141.36 70.8398 137.79 70.8398 133.39V78.64C70.8398 74.24 74.4098 70.67 78.8098 70.67H133.56C137.96 70.67 141.53 74.24 141.53 78.64V118.49C141.53 127.29 148.67 134.42 157.47 134.42H268.01C272.41 134.42 275.98 137.99 275.98 142.39V197.14C275.98 201.54 272.41 205.11 268.01 205.11H157.47C148.67 205.11 141.53 212.25 141.53 221.05L141.52 221.07Z" fill="#68DE68"/>
<path d="M403.67 262.88H397.27C393.25 262.88 389.87 261.19 387.11 257.8C384.35 254.41 382.97 250.21 382.97 245.19V198.72H398.96C401.59 198.72 403.72 197.97 405.36 196.46C406.99 194.95 407.81 193.07 407.81 190.81C407.81 188.3 406.99 186.29 405.36 184.79C403.73 183.28 401.6 182.53 398.96 182.53H382.97V155.44C382.97 152.68 382.09 150.42 380.34 148.66C378.58 146.91 376.32 146.03 373.57 146.03C370.82 146.03 368.55 146.91 366.79 148.66C365.03 150.42 364.16 152.68 364.16 155.44V182.53H355.51C352.88 182.53 350.74 183.28 349.11 184.79C347.48 186.3 346.66 188.3 346.66 190.81C346.66 193.07 347.48 194.95 349.11 196.46C350.74 197.97 352.88 198.72 355.51 198.72H364.16V245.19C364.16 252.09 365.6 258.3 368.49 263.82C371.38 269.34 375.33 273.7 380.34 276.9C385.36 280.1 391 281.7 397.27 281.7H400.66C403.92 281.7 406.59 280.82 408.66 279.07C410.73 277.31 411.77 275.06 411.77 272.3C411.77 269.54 410.98 267.28 409.42 265.52C407.85 263.77 405.94 262.89 403.68 262.89L403.67 262.88Z" fill="black"/>
<path d="M508.28 184.89C500.5 180.31 491.72 178.02 481.94 178.02C472.16 178.02 463.34 180.31 455.5 184.89C447.66 189.47 441.45 195.71 436.87 203.61C432.29 211.51 430 220.42 430 230.33C430 240.24 432.1 249.12 436.3 256.95C440.5 264.79 446.24 271 453.52 275.58C460.79 280.16 469.01 282.45 478.17 282.45C487.33 282.45 495.54 280.16 502.82 275.58C507.29 272.77 511.18 269.33 514.49 265.29V272.29C514.49 275.05 515.4 277.34 517.22 279.16C519.04 280.98 521.33 281.89 524.09 281.89C526.85 281.89 529.14 280.98 530.96 279.16C532.78 277.35 533.69 275.05 533.69 272.29V230.33C533.69 220.42 531.4 211.51 526.82 203.61C522.24 195.71 516.06 189.47 508.29 184.89H508.28ZM499.06 260.91C494.04 263.99 488.34 265.52 481.94 265.52C475.54 265.52 469.99 263.99 464.91 260.91C459.83 257.84 455.81 253.64 452.87 248.31C449.92 242.98 448.45 236.99 448.45 230.34C448.45 223.69 449.92 217.52 452.87 212.18C455.82 206.85 459.83 202.65 464.91 199.57C469.99 196.5 475.66 194.96 481.94 194.96C488.22 194.96 494.04 196.5 499.06 199.57C504.08 202.65 508.03 206.85 510.91 212.18C513.79 217.51 515.24 223.56 515.24 230.34C515.24 237.12 513.8 242.98 510.91 248.31C508.02 253.64 504.07 257.84 499.06 260.91Z" fill="black"/>
<path d="M591.44 262.88H586.74C583.98 262.88 581.72 261.37 579.97 258.36C578.21 255.35 577.34 251.52 577.34 246.88V144.15C577.34 141.39 576.46 139.13 574.71 137.38C572.95 135.62 570.69 134.74 567.93 134.74C565.17 134.74 562.91 135.62 561.16 137.38C559.4 139.14 558.53 141.39 558.53 144.15V246.88C558.53 253.66 559.72 259.65 562.1 264.85C564.48 270.06 567.81 274.16 572.07 277.17C576.33 280.18 581.23 281.69 586.75 281.69H587.13C590.89 281.69 593.97 280.81 596.35 279.06C598.73 277.3 599.92 275.05 599.92 272.29C599.92 269.53 599.14 267.27 597.57 265.51C596 263.76 593.96 262.88 591.45 262.88H591.44Z" fill="black"/>
<path d="M691.72 184.89C683.94 180.31 675.16 178.02 665.38 178.02C655.6 178.02 646.78 180.31 638.94 184.89C631.1 189.47 624.89 195.71 620.31 203.61C615.73 211.51 613.44 220.42 613.44 230.33C613.44 240.24 615.54 249.12 619.74 256.95C623.94 264.79 629.68 271 636.96 275.58C644.23 280.16 652.45 282.45 661.61 282.45C670.77 282.45 678.98 280.16 686.26 275.58C690.73 272.77 694.62 269.33 697.93 265.29V272.29C697.93 275.05 698.84 277.34 700.66 279.16C702.47 280.98 704.77 281.89 707.53 281.89C710.29 281.89 712.58 280.98 714.4 279.16C716.22 277.35 717.13 275.05 717.13 272.29V230.33C717.13 220.42 714.84 211.51 710.26 203.61C705.68 195.71 699.5 189.47 691.73 184.89H691.72ZM682.5 260.91C677.48 263.99 671.78 265.52 665.38 265.52C658.98 265.52 653.43 263.99 648.35 260.91C643.27 257.84 639.25 253.64 636.31 248.31C633.36 242.98 631.89 236.99 631.89 230.34C631.89 223.69 633.36 217.52 636.31 212.18C639.26 206.85 643.27 202.65 648.35 199.57C653.43 196.5 659.1 194.96 665.38 194.96C671.66 194.96 677.48 196.5 682.5 199.57C687.52 202.65 691.47 206.85 694.36 212.18C697.24 217.51 698.69 223.56 698.69 230.34C698.69 237.12 697.25 242.98 694.36 248.31C691.47 253.64 687.52 257.84 682.5 260.91Z" fill="black"/>
<path d="M820.04 238.33C817.66 234.51 813.74 231.15 808.28 228.26C802.82 225.38 795.39 222.99 785.98 221.11C779.21 219.73 774.06 218.32 770.55 216.88C767.04 215.44 764.69 213.81 763.49 211.99C762.3 210.17 761.7 208.13 761.7 205.87C761.7 202.23 763.61 199.47 767.44 197.59C771.27 195.71 775.94 194.77 781.46 194.77C786.22 194.77 790.43 195.33 794.06 196.46C797.7 197.59 801.08 199.66 804.22 202.67C806.1 204.43 808.42 205.56 811.18 206.06C813.94 206.56 816.32 206.13 818.33 204.74C820.33 203.23 821.4 201.39 821.53 199.19C821.65 197 820.84 194.89 819.08 192.89C815.31 188.25 810.24 184.61 803.84 181.98C797.44 179.35 790.1 178.03 781.83 178.03C775.43 178.03 769.28 179.06 763.39 181.13C757.49 183.2 752.66 186.34 748.9 190.54C745.14 194.74 743.26 200.04 743.26 206.44C743.26 213.72 746.11 219.86 751.82 224.88C757.53 229.9 766.71 233.66 779.39 236.17C789.17 237.93 795.91 240.18 799.61 242.94C803.31 245.7 805.1 248.96 804.97 252.73C804.84 256.49 802.87 259.57 799.04 261.95C795.21 264.33 789.66 265.52 782.39 265.52C776.62 265.52 771.38 264.49 766.68 262.42C761.98 260.35 758.56 258.12 756.43 255.74C754.67 253.86 752.57 252.76 750.13 252.45C747.68 252.14 745.2 252.99 742.7 254.99C740.56 256.62 739.34 258.72 739.03 261.29C738.71 263.86 739.5 266.15 741.38 268.16C745.52 272.3 751.32 275.72 758.78 278.41C766.24 281.11 774.36 282.46 783.15 282.46C791.94 282.46 799.49 281.08 805.44 278.32C811.4 275.56 815.91 271.86 818.99 267.22C822.06 262.58 823.6 257.37 823.6 251.6C823.6 246.59 822.4 242.16 820.03 238.34L820.04 238.33Z" fill="black"/>
</svg>
