<svg width="348" height="418" viewBox="0 0 348 418" fill="none" xmlns="http://www.w3.org/2000/svg">
<path d="M141.88 221.07V259.88C141.88 268.68 149.02 275.81 157.82 275.81H268.36C272.76 275.81 276.33 279.38 276.33 283.78V338.53C276.33 342.93 272.76 346.5 268.36 346.5H142.92C138.52 346.5 134.95 342.93 134.95 338.53V298.68C134.95 289.88 127.82 282.74 119.01 282.74H79.17C74.77 282.74 71.2 279.17 71.2 274.77V220.02C71.2 215.62 74.77 212.05 79.17 212.05H119.01C127.82 212.05 134.95 204.91 134.95 196.11V157.3C134.95 148.5 127.82 141.36 119.01 141.36H79.17C74.77 141.36 71.2 137.79 71.2 133.39V78.64C71.2 74.24 74.77 70.67 79.17 70.67H133.92C138.32 70.67 141.89 74.24 141.89 78.64V118.49C141.89 127.29 149.03 134.42 157.83 134.42H268.37C272.77 134.42 276.34 137.99 276.34 142.39V197.14C276.34 201.54 272.77 205.11 268.37 205.11H157.83C149.03 205.11 141.89 212.25 141.89 221.05L141.88 221.07Z" fill="#68DE68"/>
</svg>
