<svg width="619" height="634" viewBox="0 0 619 634" fill="none" xmlns="http://www.w3.org/2000/svg">
<path d="M245.12 221.07V259.88C245.12 268.68 252.26 275.81 261.06 275.81H371.6C376 275.81 379.57 279.38 379.57 283.78V338.53C379.57 342.93 376 346.5 371.6 346.5H246.16C241.76 346.5 238.19 342.93 238.19 338.53V298.68C238.19 289.88 231.06 282.74 222.25 282.74H182.41C178.01 282.74 174.44 279.17 174.44 274.77V220.02C174.44 215.62 178.01 212.05 182.41 212.05H222.25C231.06 212.05 238.19 204.91 238.19 196.11V157.3C238.19 148.5 231.06 141.36 222.25 141.36H182.41C178.01 141.36 174.44 137.79 174.44 133.39V78.64C174.44 74.24 178.01 70.67 182.41 70.67H237.16C241.56 70.67 245.13 74.24 245.13 78.64V118.49C245.13 127.29 252.27 134.42 261.07 134.42H371.61C376.01 134.42 379.58 137.99 379.58 142.39V197.14C379.58 201.54 376.01 205.11 371.61 205.11H261.07C252.27 205.11 245.13 212.25 245.13 221.05L245.12 221.07Z" fill="white"/>
<path d="M128.36 544.27H121.96C117.94 544.27 114.56 542.58 111.8 539.19C109.04 535.8 107.66 531.6 107.66 526.58V480.11H123.65C126.28 480.11 128.41 479.36 130.05 477.85C131.68 476.34 132.5 474.46 132.5 472.2C132.5 469.69 131.68 467.68 130.05 466.18C128.42 464.67 126.29 463.92 123.65 463.92H107.66V436.83C107.66 434.07 106.78 431.81 105.03 430.05C103.27 428.3 101.01 427.42 98.2601 427.42C95.5101 427.42 93.2401 428.3 91.4801 430.05C89.7201 431.81 88.8501 434.07 88.8501 436.83V463.92H80.2001C77.5701 463.92 75.4301 464.67 73.8001 466.18C72.1701 467.69 71.3501 469.69 71.3501 472.2C71.3501 474.46 72.1701 476.34 73.8001 477.85C75.4301 479.36 77.5701 480.11 80.2001 480.11H88.8501V526.58C88.8501 533.48 90.2901 539.69 93.1801 545.21C96.0701 550.73 100.02 555.09 105.03 558.29C110.05 561.49 115.69 563.09 121.96 563.09H125.35C128.61 563.09 131.28 562.21 133.35 560.46C135.42 558.7 136.46 556.45 136.46 553.69C136.46 550.93 135.67 548.67 134.11 546.91C132.54 545.16 130.63 544.28 128.37 544.28L128.36 544.27Z" fill="white"/>
<path d="M232.97 466.28C225.19 461.7 216.41 459.41 206.63 459.41C196.85 459.41 188.03 461.7 180.19 466.28C172.35 470.86 166.14 477.1 161.56 485C156.98 492.9 154.69 501.81 154.69 511.72C154.69 521.63 156.79 530.51 160.99 538.34C165.19 546.18 170.93 552.39 178.21 556.97C185.48 561.55 193.7 563.84 202.86 563.84C212.02 563.84 220.23 561.55 227.51 556.97C231.98 554.16 235.87 550.72 239.18 546.68V553.68C239.18 556.44 240.09 558.73 241.91 560.55C243.73 562.37 246.02 563.28 248.78 563.28C251.54 563.28 253.83 562.37 255.65 560.55C257.47 558.74 258.38 556.44 258.38 553.68V511.72C258.38 501.81 256.09 492.9 251.51 485C246.93 477.1 240.75 470.86 232.98 466.28H232.97ZM223.75 542.3C218.73 545.38 213.03 546.91 206.63 546.91C200.23 546.91 194.68 545.38 189.6 542.3C184.52 539.23 180.5 535.03 177.56 529.7C174.61 524.37 173.14 518.38 173.14 511.73C173.14 505.08 174.61 498.91 177.56 493.57C180.51 488.24 184.52 484.04 189.6 480.96C194.68 477.89 200.35 476.35 206.63 476.35C212.91 476.35 218.73 477.89 223.75 480.96C228.77 484.04 232.72 488.24 235.6 493.57C238.48 498.9 239.93 504.95 239.93 511.73C239.93 518.51 238.49 524.37 235.6 529.7C232.71 535.03 228.76 539.23 223.75 542.3Z" fill="white"/>
<path d="M316.13 544.27H311.43C308.67 544.27 306.41 542.76 304.66 539.75C302.9 536.74 302.03 532.91 302.03 528.27V425.54C302.03 422.78 301.15 420.52 299.4 418.77C297.64 417.01 295.38 416.13 292.62 416.13C289.86 416.13 287.6 417.01 285.85 418.77C284.09 420.53 283.22 422.78 283.22 425.54V528.27C283.22 535.05 284.41 541.04 286.79 546.24C289.17 551.45 292.5 555.55 296.76 558.56C301.02 561.57 305.92 563.08 311.44 563.08H311.82C315.58 563.08 318.66 562.2 321.04 560.45C323.42 558.69 324.61 556.44 324.61 553.68C324.61 550.92 323.83 548.66 322.26 546.9C320.69 545.15 318.65 544.27 316.14 544.27H316.13Z" fill="white"/>
<path d="M416.41 466.28C408.63 461.7 399.85 459.41 390.07 459.41C380.29 459.41 371.47 461.7 363.63 466.28C355.79 470.86 349.58 477.1 345 485C340.42 492.9 338.13 501.81 338.13 511.72C338.13 521.63 340.23 530.51 344.43 538.34C348.63 546.18 354.37 552.39 361.65 556.97C368.92 561.55 377.14 563.84 386.3 563.84C395.46 563.84 403.67 561.55 410.95 556.97C415.42 554.16 419.31 550.72 422.62 546.68V553.68C422.62 556.44 423.53 558.73 425.35 560.55C427.16 562.37 429.46 563.28 432.22 563.28C434.98 563.28 437.27 562.37 439.09 560.55C440.91 558.74 441.82 556.44 441.82 553.68V511.72C441.82 501.81 439.53 492.9 434.95 485C430.37 477.1 424.19 470.86 416.42 466.28H416.41ZM407.19 542.3C402.17 545.38 396.47 546.91 390.07 546.91C383.67 546.91 378.12 545.38 373.04 542.3C367.96 539.23 363.94 535.03 361 529.7C358.05 524.37 356.58 518.38 356.58 511.73C356.58 505.08 358.05 498.91 361 493.57C363.95 488.24 367.96 484.04 373.04 480.96C378.12 477.89 383.79 476.35 390.07 476.35C396.35 476.35 402.17 477.89 407.19 480.96C412.21 484.04 416.16 488.24 419.05 493.57C421.93 498.9 423.38 504.95 423.38 511.73C423.38 518.51 421.94 524.37 419.05 529.7C416.16 535.03 412.21 539.23 407.19 542.3Z" fill="white"/>
<path d="M544.73 519.72C542.35 515.9 538.43 512.54 532.97 509.65C527.51 506.77 520.08 504.38 510.67 502.5C503.9 501.12 498.75 499.71 495.24 498.27C491.73 496.83 489.38 495.2 488.18 493.38C486.99 491.56 486.39 489.52 486.39 487.26C486.39 483.62 488.3 480.86 492.13 478.98C495.96 477.1 500.63 476.16 506.15 476.16C510.91 476.16 515.12 476.72 518.75 477.85C522.39 478.98 525.77 481.05 528.91 484.06C530.79 485.82 533.11 486.95 535.87 487.45C538.63 487.95 541.01 487.52 543.02 486.13C545.02 484.62 546.09 482.78 546.22 480.58C546.34 478.39 545.53 476.28 543.77 474.28C540 469.64 534.93 466 528.53 463.37C522.13 460.74 514.79 459.42 506.52 459.42C500.12 459.42 493.97 460.45 488.08 462.52C482.18 464.59 477.35 467.73 473.59 471.93C469.83 476.13 467.95 481.43 467.95 487.83C467.95 495.11 470.8 501.25 476.51 506.27C482.22 511.29 491.4 515.05 504.08 517.56C513.86 519.32 520.6 521.57 524.3 524.33C528 527.09 529.79 530.35 529.66 534.12C529.53 537.88 527.56 540.96 523.73 543.34C519.9 545.72 514.35 546.91 507.08 546.91C501.31 546.91 496.07 545.88 491.37 543.81C486.67 541.74 483.25 539.51 481.12 537.13C479.36 535.25 477.26 534.15 474.82 533.84C472.37 533.53 469.89 534.38 467.39 536.38C465.25 538.01 464.03 540.11 463.72 542.68C463.4 545.25 464.19 547.54 466.07 549.55C470.21 553.69 476.01 557.11 483.47 559.8C490.93 562.5 499.05 563.85 507.84 563.85C516.63 563.85 524.18 562.47 530.13 559.71C536.09 556.95 540.6 553.25 543.68 548.61C546.75 543.97 548.29 538.76 548.29 532.99C548.29 527.98 547.09 523.55 544.72 519.73L544.73 519.72Z" fill="white"/>
</svg>
