<svg width="347" height="418" viewBox="0 0 347 418" fill="none" xmlns="http://www.w3.org/2000/svg">
<path d="M141.39 221.07V259.88C141.39 268.68 148.53 275.81 157.33 275.81H267.87C272.27 275.81 275.84 279.38 275.84 283.78V338.53C275.84 342.93 272.27 346.5 267.87 346.5H142.43C138.03 346.5 134.46 342.93 134.46 338.53V298.68C134.46 289.88 127.33 282.74 118.52 282.74H78.68C74.28 282.74 70.71 279.17 70.71 274.77V220.02C70.71 215.62 74.28 212.05 78.68 212.05H118.52C127.33 212.05 134.46 204.91 134.46 196.11V157.3C134.46 148.5 127.33 141.36 118.52 141.36H78.68C74.28 141.36 70.71 137.79 70.71 133.39V78.64C70.71 74.24 74.28 70.67 78.68 70.67H133.43C137.83 70.67 141.4 74.24 141.4 78.64V118.49C141.4 127.29 148.54 134.42 157.34 134.42H267.88C272.28 134.42 275.85 137.99 275.85 142.39V197.14C275.85 201.54 272.28 205.11 267.88 205.11H157.34C148.54 205.11 141.4 212.25 141.4 221.05L141.39 221.07Z" fill="white"/>
</svg>
