<svg width="895" height="418" viewBox="0 0 895 418" fill="none" xmlns="http://www.w3.org/2000/svg">
<path d="M141.37 221.07V259.88C141.37 268.68 148.51 275.81 157.31 275.81H267.85C272.25 275.81 275.82 279.38 275.82 283.78V338.53C275.82 342.93 272.25 346.5 267.85 346.5H142.41C138.01 346.5 134.44 342.93 134.44 338.53V298.68C134.44 289.88 127.31 282.74 118.5 282.74H78.6599C74.2599 282.74 70.6899 279.17 70.6899 274.77V220.02C70.6899 215.62 74.2599 212.05 78.6599 212.05H118.5C127.31 212.05 134.44 204.91 134.44 196.11V157.3C134.44 148.5 127.31 141.36 118.5 141.36H78.6599C74.2599 141.36 70.6899 137.79 70.6899 133.39V78.64C70.6899 74.24 74.2599 70.67 78.6599 70.67H133.41C137.81 70.67 141.38 74.24 141.38 78.64V118.49C141.38 127.29 148.52 134.42 157.32 134.42H267.86C272.26 134.42 275.83 137.99 275.83 142.39V197.14C275.83 201.54 272.26 205.11 267.86 205.11H157.32C148.52 205.11 141.38 212.25 141.38 221.05L141.37 221.07Z" fill="black"/>
<path d="M403.52 262.88H397.12C393.1 262.88 389.72 261.19 386.96 257.8C384.2 254.41 382.82 250.21 382.82 245.19V198.72H398.81C401.44 198.72 403.57 197.97 405.21 196.46C406.84 194.95 407.66 193.07 407.66 190.81C407.66 188.3 406.84 186.29 405.21 184.79C403.58 183.28 401.45 182.53 398.81 182.53H382.82V155.44C382.82 152.68 381.94 150.42 380.19 148.66C378.43 146.91 376.17 146.03 373.42 146.03C370.67 146.03 368.4 146.91 366.64 148.66C364.88 150.42 364.01 152.68 364.01 155.44V182.53H355.36C352.73 182.53 350.59 183.28 348.96 184.79C347.33 186.3 346.51 188.3 346.51 190.81C346.51 193.07 347.33 194.95 348.96 196.46C350.59 197.97 352.73 198.72 355.36 198.72H364.01V245.19C364.01 252.09 365.45 258.3 368.34 263.82C371.23 269.34 375.18 273.7 380.19 276.9C385.21 280.1 390.85 281.7 397.12 281.7H400.51C403.77 281.7 406.44 280.82 408.51 279.07C410.58 277.31 411.62 275.06 411.62 272.3C411.62 269.54 410.83 267.28 409.27 265.52C407.7 263.77 405.79 262.89 403.53 262.89L403.52 262.88Z" fill="black"/>
<path d="M508.13 184.89C500.35 180.31 491.57 178.02 481.79 178.02C472.01 178.02 463.19 180.31 455.35 184.89C447.51 189.47 441.3 195.71 436.72 203.61C432.14 211.51 429.85 220.42 429.85 230.33C429.85 240.24 431.95 249.12 436.15 256.95C440.35 264.79 446.09 271 453.37 275.58C460.64 280.16 468.86 282.45 478.02 282.45C487.18 282.45 495.39 280.16 502.67 275.58C507.14 272.77 511.03 269.33 514.34 265.29V272.29C514.34 275.05 515.25 277.34 517.07 279.16C518.89 280.98 521.18 281.89 523.94 281.89C526.7 281.89 528.99 280.98 530.81 279.16C532.63 277.35 533.54 275.05 533.54 272.29V230.33C533.54 220.42 531.25 211.51 526.67 203.61C522.09 195.71 515.91 189.47 508.14 184.89H508.13ZM498.91 260.91C493.89 263.99 488.19 265.52 481.79 265.52C475.39 265.52 469.84 263.99 464.76 260.91C459.68 257.84 455.66 253.64 452.72 248.31C449.77 242.98 448.3 236.99 448.3 230.34C448.3 223.69 449.77 217.52 452.72 212.18C455.67 206.85 459.68 202.65 464.76 199.57C469.84 196.5 475.51 194.96 481.79 194.96C488.07 194.96 493.89 196.5 498.91 199.57C503.93 202.65 507.88 206.85 510.76 212.18C513.64 217.51 515.09 223.56 515.09 230.34C515.09 237.12 513.65 242.98 510.76 248.31C507.87 253.64 503.92 257.84 498.91 260.91Z" fill="black"/>
<path d="M591.29 262.88H586.59C583.83 262.88 581.57 261.37 579.82 258.36C578.06 255.35 577.19 251.52 577.19 246.88V144.15C577.19 141.39 576.31 139.13 574.56 137.38C572.8 135.62 570.54 134.74 567.78 134.74C565.02 134.74 562.76 135.62 561.01 137.38C559.25 139.14 558.38 141.39 558.38 144.15V246.88C558.38 253.66 559.57 259.65 561.95 264.85C564.33 270.06 567.66 274.16 571.92 277.17C576.18 280.18 581.08 281.69 586.6 281.69H586.98C590.74 281.69 593.82 280.81 596.2 279.06C598.58 277.3 599.77 275.05 599.77 272.29C599.77 269.53 598.99 267.27 597.42 265.51C595.85 263.76 593.81 262.88 591.3 262.88H591.29Z" fill="black"/>
<path d="M691.57 184.89C683.79 180.31 675.01 178.02 665.23 178.02C655.45 178.02 646.63 180.31 638.79 184.89C630.95 189.47 624.74 195.71 620.16 203.61C615.58 211.51 613.29 220.42 613.29 230.33C613.29 240.24 615.39 249.12 619.59 256.95C623.79 264.79 629.53 271 636.81 275.58C644.08 280.16 652.3 282.45 661.46 282.45C670.62 282.45 678.83 280.16 686.11 275.58C690.58 272.77 694.47 269.33 697.78 265.29V272.29C697.78 275.05 698.69 277.34 700.51 279.16C702.32 280.98 704.62 281.89 707.38 281.89C710.14 281.89 712.43 280.98 714.25 279.16C716.07 277.35 716.98 275.05 716.98 272.29V230.33C716.98 220.42 714.69 211.51 710.11 203.61C705.53 195.71 699.35 189.47 691.58 184.89H691.57ZM682.35 260.91C677.33 263.99 671.63 265.52 665.23 265.52C658.83 265.52 653.28 263.99 648.2 260.91C643.12 257.84 639.1 253.64 636.16 248.31C633.21 242.98 631.74 236.99 631.74 230.34C631.74 223.69 633.21 217.52 636.16 212.18C639.11 206.85 643.12 202.65 648.2 199.57C653.28 196.5 658.95 194.96 665.23 194.96C671.51 194.96 677.33 196.5 682.35 199.57C687.37 202.65 691.32 206.85 694.21 212.18C697.09 217.51 698.54 223.56 698.54 230.34C698.54 237.12 697.1 242.98 694.21 248.31C691.32 253.64 687.37 257.84 682.35 260.91Z" fill="black"/>
<path d="M819.89 238.33C817.51 234.51 813.59 231.15 808.13 228.26C802.67 225.38 795.24 222.99 785.83 221.11C779.06 219.73 773.91 218.32 770.4 216.88C766.89 215.44 764.54 213.81 763.34 211.99C762.15 210.17 761.55 208.13 761.55 205.87C761.55 202.23 763.46 199.47 767.29 197.59C771.12 195.71 775.79 194.77 781.31 194.77C786.07 194.77 790.28 195.33 793.91 196.46C797.55 197.59 800.93 199.66 804.07 202.67C805.95 204.43 808.27 205.56 811.03 206.06C813.79 206.56 816.17 206.13 818.18 204.74C820.18 203.23 821.25 201.39 821.38 199.19C821.5 197 820.69 194.89 818.93 192.89C815.16 188.25 810.09 184.61 803.69 181.98C797.29 179.35 789.95 178.03 781.68 178.03C775.28 178.03 769.13 179.06 763.24 181.13C757.34 183.2 752.51 186.34 748.75 190.54C744.99 194.74 743.11 200.04 743.11 206.44C743.11 213.72 745.96 219.86 751.67 224.88C757.38 229.9 766.56 233.66 779.24 236.17C789.02 237.93 795.76 240.18 799.46 242.94C803.16 245.7 804.95 248.96 804.82 252.73C804.69 256.49 802.72 259.57 798.89 261.95C795.06 264.33 789.51 265.52 782.24 265.52C776.47 265.52 771.23 264.49 766.53 262.42C761.83 260.35 758.41 258.12 756.28 255.74C754.52 253.86 752.42 252.76 749.98 252.45C747.53 252.14 745.05 252.99 742.55 254.99C740.41 256.62 739.19 258.72 738.88 261.29C738.56 263.86 739.35 266.15 741.23 268.16C745.37 272.3 751.17 275.72 758.63 278.41C766.09 281.11 774.21 282.46 783 282.46C791.79 282.46 799.34 281.08 805.29 278.32C811.25 275.56 815.76 271.86 818.84 267.22C821.91 262.58 823.45 257.37 823.45 251.6C823.45 246.59 822.25 242.16 819.88 238.34L819.89 238.33Z" fill="black"/>
</svg>
