<svg width="619" height="634" viewBox="0 0 619 634" fill="none" xmlns="http://www.w3.org/2000/svg">
<path d="M244.79 221.07V259.88C244.79 268.68 251.93 275.81 260.73 275.81H371.27C375.67 275.81 379.24 279.38 379.24 283.78V338.53C379.24 342.93 375.67 346.5 371.27 346.5H245.83C241.43 346.5 237.86 342.93 237.86 338.53V298.68C237.86 289.88 230.73 282.74 221.92 282.74H182.08C177.68 282.74 174.11 279.17 174.11 274.77V220.02C174.11 215.62 177.68 212.05 182.08 212.05H221.92C230.73 212.05 237.86 204.91 237.86 196.11V157.3C237.86 148.5 230.73 141.36 221.92 141.36H182.08C177.68 141.36 174.11 137.79 174.11 133.39V78.64C174.11 74.24 177.68 70.67 182.08 70.67H236.83C241.23 70.67 244.8 74.24 244.8 78.64V118.49C244.8 127.29 251.94 134.42 260.74 134.42H371.28C375.68 134.42 379.25 137.99 379.25 142.39V197.14C379.25 201.54 375.68 205.11 371.28 205.11H260.74C251.94 205.11 244.8 212.25 244.8 221.05L244.79 221.07Z" fill="#68DE68"/>
<path d="M128.03 544.27H121.63C117.61 544.27 114.23 542.58 111.47 539.19C108.71 535.8 107.33 531.6 107.33 526.58V480.11H123.32C125.95 480.11 128.08 479.36 129.72 477.85C131.35 476.34 132.17 474.46 132.17 472.2C132.17 469.69 131.35 467.68 129.72 466.18C128.09 464.67 125.96 463.92 123.32 463.92H107.33V436.83C107.33 434.07 106.45 431.81 104.7 430.05C102.94 428.3 100.68 427.42 97.93 427.42C95.18 427.42 92.91 428.3 91.15 430.05C89.39 431.81 88.52 434.07 88.52 436.83V463.92H79.87C77.24 463.92 75.1 464.67 73.47 466.18C71.84 467.69 71.02 469.69 71.02 472.2C71.02 474.46 71.84 476.34 73.47 477.85C75.1 479.36 77.24 480.11 79.87 480.11H88.52V526.58C88.52 533.48 89.96 539.69 92.85 545.21C95.74 550.73 99.69 555.09 104.7 558.29C109.72 561.49 115.36 563.09 121.63 563.09H125.02C128.28 563.09 130.95 562.21 133.02 560.46C135.09 558.7 136.13 556.45 136.13 553.69C136.13 550.93 135.34 548.67 133.78 546.91C132.21 545.16 130.3 544.28 128.04 544.28L128.03 544.27Z" fill="black"/>
<path d="M232.64 466.28C224.86 461.7 216.08 459.41 206.3 459.41C196.52 459.41 187.7 461.7 179.86 466.28C172.02 470.86 165.81 477.1 161.23 485C156.65 492.9 154.36 501.81 154.36 511.72C154.36 521.63 156.46 530.51 160.66 538.34C164.86 546.18 170.6 552.39 177.88 556.97C185.15 561.55 193.37 563.84 202.53 563.84C211.69 563.84 219.9 561.55 227.18 556.97C231.65 554.16 235.54 550.72 238.85 546.68V553.68C238.85 556.44 239.76 558.73 241.58 560.55C243.4 562.37 245.69 563.28 248.45 563.28C251.21 563.28 253.5 562.37 255.32 560.55C257.14 558.74 258.05 556.44 258.05 553.68V511.72C258.05 501.81 255.76 492.9 251.18 485C246.6 477.1 240.42 470.86 232.65 466.28H232.64ZM223.42 542.3C218.4 545.38 212.7 546.91 206.3 546.91C199.9 546.91 194.35 545.38 189.27 542.3C184.19 539.23 180.17 535.03 177.23 529.7C174.28 524.37 172.81 518.38 172.81 511.73C172.81 505.08 174.28 498.91 177.23 493.57C180.18 488.24 184.19 484.04 189.27 480.96C194.35 477.89 200.02 476.35 206.3 476.35C212.58 476.35 218.4 477.89 223.42 480.96C228.44 484.04 232.39 488.24 235.27 493.57C238.15 498.9 239.6 504.95 239.6 511.73C239.6 518.51 238.16 524.37 235.27 529.7C232.38 535.03 228.43 539.23 223.42 542.3Z" fill="black"/>
<path d="M315.8 544.27H311.1C308.34 544.27 306.08 542.76 304.33 539.75C302.57 536.74 301.7 532.91 301.7 528.27V425.54C301.7 422.78 300.82 420.52 299.07 418.77C297.31 417.01 295.05 416.13 292.29 416.13C289.53 416.13 287.27 417.01 285.52 418.77C283.76 420.53 282.89 422.78 282.89 425.54V528.27C282.89 535.05 284.08 541.04 286.46 546.24C288.84 551.45 292.17 555.55 296.43 558.56C300.69 561.57 305.59 563.08 311.11 563.08H311.49C315.25 563.08 318.33 562.2 320.71 560.45C323.09 558.69 324.28 556.44 324.28 553.68C324.28 550.92 323.5 548.66 321.93 546.9C320.36 545.15 318.32 544.27 315.81 544.27H315.8Z" fill="black"/>
<path d="M416.08 466.28C408.3 461.7 399.52 459.41 389.74 459.41C379.96 459.41 371.14 461.7 363.3 466.28C355.46 470.86 349.25 477.1 344.67 485C340.09 492.9 337.8 501.81 337.8 511.72C337.8 521.63 339.9 530.51 344.1 538.34C348.3 546.18 354.04 552.39 361.32 556.97C368.59 561.55 376.81 563.84 385.97 563.84C395.13 563.84 403.34 561.55 410.62 556.97C415.09 554.16 418.98 550.72 422.29 546.68V553.68C422.29 556.44 423.2 558.73 425.02 560.55C426.83 562.37 429.13 563.28 431.89 563.28C434.65 563.28 436.94 562.37 438.76 560.55C440.58 558.74 441.49 556.44 441.49 553.68V511.72C441.49 501.81 439.2 492.9 434.62 485C430.04 477.1 423.86 470.86 416.09 466.28H416.08ZM406.86 542.3C401.84 545.38 396.14 546.91 389.74 546.91C383.34 546.91 377.79 545.38 372.71 542.3C367.63 539.23 363.61 535.03 360.67 529.7C357.72 524.37 356.25 518.38 356.25 511.73C356.25 505.08 357.72 498.91 360.67 493.57C363.62 488.24 367.63 484.04 372.71 480.96C377.79 477.89 383.46 476.35 389.74 476.35C396.02 476.35 401.84 477.89 406.86 480.96C411.88 484.04 415.83 488.24 418.72 493.57C421.6 498.9 423.05 504.95 423.05 511.73C423.05 518.51 421.61 524.37 418.72 529.7C415.83 535.03 411.88 539.23 406.86 542.3Z" fill="black"/>
<path d="M544.4 519.72C542.02 515.9 538.1 512.54 532.64 509.65C527.18 506.77 519.75 504.38 510.34 502.5C503.57 501.12 498.42 499.71 494.91 498.27C491.4 496.83 489.05 495.2 487.85 493.38C486.66 491.56 486.06 489.52 486.06 487.26C486.06 483.62 487.97 480.86 491.8 478.98C495.63 477.1 500.3 476.16 505.82 476.16C510.58 476.16 514.79 476.72 518.42 477.85C522.06 478.98 525.44 481.05 528.58 484.06C530.46 485.82 532.78 486.95 535.54 487.45C538.3 487.95 540.68 487.52 542.69 486.13C544.69 484.62 545.76 482.78 545.89 480.58C546.01 478.39 545.2 476.28 543.44 474.28C539.67 469.64 534.6 466 528.2 463.37C521.8 460.74 514.46 459.42 506.19 459.42C499.79 459.42 493.64 460.45 487.75 462.52C481.85 464.59 477.02 467.73 473.26 471.93C469.5 476.13 467.62 481.43 467.62 487.83C467.62 495.11 470.47 501.25 476.18 506.27C481.89 511.29 491.07 515.05 503.75 517.56C513.53 519.32 520.27 521.57 523.97 524.33C527.67 527.09 529.46 530.35 529.33 534.12C529.2 537.88 527.23 540.96 523.4 543.34C519.57 545.72 514.02 546.91 506.75 546.91C500.98 546.91 495.74 545.88 491.04 543.81C486.34 541.74 482.92 539.51 480.79 537.13C479.03 535.25 476.93 534.15 474.49 533.84C472.04 533.53 469.56 534.38 467.06 536.38C464.92 538.01 463.7 540.11 463.39 542.68C463.07 545.25 463.86 547.54 465.74 549.55C469.88 553.69 475.68 557.11 483.14 559.8C490.6 562.5 498.72 563.85 507.51 563.85C516.3 563.85 523.85 562.47 529.8 559.71C535.76 556.95 540.27 553.25 543.35 548.61C546.42 543.97 547.96 538.76 547.96 532.99C547.96 527.98 546.76 523.55 544.39 519.73L544.4 519.72Z" fill="black"/>
</svg>
